<svg id="Layer_1" data-name="Layer 1" xmlns="http://www.w3.org/2000/svg" xmlns:xlink="http://www.w3.org/1999/xlink" viewBox="0 0 2211 533.18"><defs><style>.cls-1{fill:none;}.cls-2{clip-path:url(#clip-path);}.cls-3{fill:#fff;}</style><clipPath id="clip-path" transform="translate(-88 -254.12)"><rect class="cls-1" width="2436" height="1125"/></clipPath></defs><g class="cls-2"><path class="cls-3" d="M2054.21,287.49s10.81,5.33,27.72,15.05l31.43-32.15q-13.32-8.07-27.84-16.27Z" transform="translate(-88 -254.12)"/><path class="cls-3" d="M2105.91,316.9c8.75,5.45,18.19,11.58,28,18.33l31-30.89c-8.48-6.08-17.42-12.23-26.94-18.45Z" transform="translate(-88 -254.12)"/><path class="cls-3" d="M2154.54,349.94c8.14,6,16.36,12.43,24.5,19.15l28.61-31.17q-10.56-9.19-22.71-18.65Z" transform="translate(-88 -254.12)"/><path class="cls-3" d="M2227.58,356.35l-26.42,32.07c5.52,5.12,10.93,10.39,16.16,15.79l27.86-29.38c-5.35-6.05-11.24-12.22-17.6-18.48" transform="translate(-88 -254.12)"/><path class="cls-3" d="M2232.09,420.41c5.06,5.91,9.87,11.94,14.36,18.1L2271,408.6q-5.4-8.39-12.1-17.14Z" transform="translate(-88 -254.12)"/><path class="cls-3" d="M2283.5,430.88l-24.3,27a193.14,193.14,0,0,1,9.19,17.53l22.24-27.64a175.43,175.43,0,0,0-7.13-16.92" transform="translate(-88 -254.12)"/><path class="cls-3" d="M2296.71,469.57c-5.33,6.22-14.5,17.19-21,24.95a135.76,135.76,0,0,1,3.61,14.25L2299,487.42a133.29,133.29,0,0,0-2.29-17.85" transform="translate(-88 -254.12)"/><path class="cls-3" d="M2294.89,526.11a113.36,113.36,0,0,0,3.61-18.66l-17,17.49q.36,5.64.16,11.33Z" transform="translate(-88 -254.12)"/><path class="cls-3" d="M2295.47,552.9a94.72,94.72,0,0,0,3-15.67l-14.29,14.69c.21,3.16.24,6.34.14,9.52Z" transform="translate(-88 -254.12)"/><path class="cls-3" d="M1954.56,282c-21.43-7.88-34.84-12-34.84-12l-30.8,40c11,3.47,21.55,7,31.86,10.55Z" transform="translate(-88 -254.12)"/><path class="cls-3" d="M1943.85,328.82c9.81,3.6,19.22,7.25,28.38,10.91l32.91-37.6c-10.31-4.4-20.06-8.38-29-11.91Z" transform="translate(-88 -254.12)"/><path class="cls-3" d="M1997.85,350.39q16.17,7,30.9,14.16l33-36.1c-9.58-4.85-19-9.42-28.25-13.7Z" transform="translate(-88 -254.12)"/><path class="cls-3" d="M2051.9,376.19c10,5.29,19.49,10.62,28.47,16l33.82-34.58c-8.89-5.43-17.88-10.63-26.86-15.59Z" transform="translate(-88 -254.12)"/><path class="cls-3" d="M2101.2,405.14q13.61,8.94,25.39,17.87l34.55-33.57c-8.07-6.15-16.41-12.07-24.92-17.78Z" transform="translate(-88 -254.12)"/><path class="cls-3" d="M2181.65,406.1l-34.54,33.47q11.46,9.92,21,19.7l33.45-34.55c-6.27-6.38-12.93-12.59-19.89-18.62" transform="translate(-88 -254.12)"/><path class="cls-3" d="M2218.29,443.35l-34.15,33.88q7.58,9.24,13.61,18.24l35-32.3a218.88,218.88,0,0,0-14.47-19.82" transform="translate(-88 -254.12)"/><path class="cls-3" d="M2241.51,478.18l-33.35,34.27a193.75,193.75,0,0,1,9.57,20.17l32.64-33.78a155.51,155.51,0,0,0-8.86-20.66" transform="translate(-88 -254.12)"/><path class="cls-3" d="M2255.32,517.1l-32,31.46a159.81,159.81,0,0,1,4.39,19.12l30-26.58a126.76,126.76,0,0,0-2.41-24" transform="translate(-88 -254.12)"/><path class="cls-3" d="M2229.51,600l21-15.81a140.08,140.08,0,0,0,5.18-20.14l-26.22,19.32a144.41,144.41,0,0,1,0,16.63" transform="translate(-88 -254.12)"/><path class="cls-3" d="M2233.39,625.42l14.54-11.36a103.17,103.17,0,0,0,3.6-14.46l-18.16,13.88a108.18,108.18,0,0,1,0,11.94" transform="translate(-88 -254.12)"/><path class="cls-3" d="M1983.37,436.35s11.63,4.92,29.07,14.15l36-34.1c-9.68-5.28-19.87-10.57-30.69-15.85Z" transform="translate(-88 -254.12)"/><path class="cls-3" d="M2037.54,464.68c9.42,5.66,19.48,12.13,29.71,19.33l36.37-33.54c-9.08-6.41-18.87-12.84-29.49-19.3Z" transform="translate(-88 -254.12)"/><path class="cls-3" d="M2088,499.6c7,5.6,13.86,11.53,20.51,17.78l35.89-33.82q-9.45-9-20.76-18.05Z" transform="translate(-88 -254.12)"/><path class="cls-3" d="M2160.22,499.83l-36.56,32.85c4.92,5.37,9.61,10.93,14,16.69l38.13-30a216.32,216.32,0,0,0-15.55-19.55" transform="translate(-88 -254.12)"/><path class="cls-3" d="M2185.58,535l-37,30.23a165,165,0,0,1,10.15,19L2195,555.32a150.79,150.79,0,0,0-9.46-20.34" transform="translate(-88 -254.12)"/><path class="cls-3" d="M2200.08,571.85l-35.84,26.84a126.23,126.23,0,0,1,4.91,21.33l34.08-24.26a122.51,122.51,0,0,0-3.15-23.91" transform="translate(-88 -254.12)"/><path class="cls-3" d="M2202.38,614.16l-32.08,23.9a117.44,117.44,0,0,1-.78,11.89l29.88-19.82a129.17,129.17,0,0,0,3-16" transform="translate(-88 -254.12)"/><path class="cls-3" d="M2190,656.2l-24.84,15.16q-1.89,6.35-4.52,12.81l16.25-5A172.88,172.88,0,0,0,2190,656.2" transform="translate(-88 -254.12)"/><path class="cls-3" d="M1844.61,718.8l-1.39-.3c-10.87-2.4-22.46-5.24-34.45-8.46l-3.5-.95,35.07-40.23,1.33.33c10.83,2.62,21.63,5.1,32.1,7.36l3.55.77Zm-31.17-12.2c10.18,2.69,20,5.1,29.37,7.17l26.47-33.57c-9-2-18.13-4.07-27.33-6.29Z" transform="translate(-88 -254.12)"/><path class="cls-3" d="M1906.15,729.56l-1.25-.16c-10.32-1.38-21.45-3.13-33.07-5.22l-3.68-.67L1900.53,682l1.35.26c11.31,2.16,22.68,4.15,33.79,5.92l3.9.61Zm-29.82-9.18c9.75,1.71,19.12,3.17,27.92,4.36l26.82-32.7c-9.47-1.54-19.09-3.24-28.68-5.06Z" transform="translate(-88 -254.12)"/><path class="cls-3" d="M1966.42,734.83l-1.22-.06c-10.43-.47-21.15-1.21-31.87-2.2l-4.36-.4,34.25-40,1.21.15c9,1.14,17.91,2.14,26.64,3l4,.38Zm-28.32-6.37c8.78.75,17.53,1.34,26.1,1.74l22.48-30.79c-7.11-.71-14.36-1.54-21.61-2.45Z" transform="translate(-88 -254.12)"/><path class="cls-3" d="M1995.24,735.47h-6.54l30-38,1.18.07c8.47.46,17,.77,25.28.9l4.23.07-25.14,36.35-1.12,0c-9,.4-18.33.6-27.84.6m25.51-33.4L1998,730.94c8.09,0,16-.21,23.74-.54l19-27.56c-6.62-.15-13.34-.41-20.06-.77" transform="translate(-88 -254.12)"/><path class="cls-3" d="M2045.21,733.51l30-35.47,1,0c10.18-.44,20-1.2,29.32-2.25l5.76-.65-29.59,34.19-.83.12c-9.58,1.44-19.71,2.65-30.12,3.61Zm32.15-31L2055.82,728c8.08-.82,16-1.8,23.52-2.92l20.95-24.21c-7.37.72-15.06,1.27-22.93,1.63" transform="translate(-88 -254.12)"/><path class="cls-3" d="M2099.53,726.26l22.37-32.74.95-.16c7.86-1.29,15.55-2.84,22.87-4.63l6.24-1.52-24.88,32.42-.68.21c-.31.1-7.69,2.41-21.37,5.27Zm25-28.6-14.9,21.82c7.94-1.79,13-3.23,14.73-3.75l16.25-21.17c-5.23,1.16-10.62,2.19-16.08,3.1" transform="translate(-88 -254.12)"/><path class="cls-3" d="M1955.84,786.33a79.55,79.55,0,0,1-12.09-.75l-4.18-.66,28.71-31.06,1,0s10.64.18,25.62,0l5.11-.06-28.28,31.83-.93.06q-8.47.59-15,.59m-7-4.75a157.24,157.24,0,0,0,20.78-.29l20.29-22.82c-9.79.06-17.07,0-19.65-.05Z" transform="translate(-88 -254.12)"/><path class="cls-3" d="M1986,786.22l33.09-31.12.85,0c10.14-.35,19.47-.85,27.75-1.49l5.22-.41-21.74,27-.86.13c-13.82,2.15-26.45,3.89-37.54,5.16Zm35-26.65L1999,780.13c9.06-1.12,19-2.52,29.68-4.18l14.09-17.49c-6.74.46-14.08.83-21.89,1.11" transform="translate(-88 -254.12)"/><path class="cls-3" d="M1794.31,769.82l-41.26-10.31,32.23-28.57,38.55,7.63Zm-32.19-12.7,30.72,7.67,22.84-24.18-29.56-4.73Z" transform="translate(-88 -254.12)"/><path class="cls-3" d="M1849.89,779.59l-34-3.58,28.2-27.87,34.25,2.56Zm-24-7.08,22.34,2.35,20.06-20.38-22.46-1.68Z" transform="translate(-88 -254.12)"/><path class="cls-3" d="M1906.26,787.3h-37.73l30.79-30.18h39.55Zm-26.66-4.52h24.89l22.83-21.14h-26.15Z" transform="translate(-88 -254.12)"/><path class="cls-3" d="M2093.91,677.46l30.39-39h26.22l-23.82,35.09ZM2126.52,643l-22.37,28.72,20-2.41L2142,643Z" transform="translate(-88 -254.12)"/><path class="cls-3" d="M2055.82,777l24-22.59.63,0c7.37-.26,14.15-.62,20.17-1.09l3.8-.29-15.81,19.59-.63.1c-10,1.56-19.23,2.82-27.29,3.74Zm25.41-19.35-15.91,14.93c6.59-.81,13.82-1.83,21.58-3l10.24-12.7c-4.89.33-10.23.6-15.91.8" transform="translate(-88 -254.12)"/><path class="cls-3" d="M2054.86,777.47l24.88-23.37.74,0c7.29-.25,14.07-.62,20.16-1.09l4.57-.36-16.37,20.3-.76.12c-10.09,1.56-19.27,2.82-27.3,3.74ZM2080,754.76l-23.23,21.82,3.92-.45c8-.92,17.2-2.18,27.28-3.74l.5-.08,15.24-18.89-3,.23c-6.1.47-12.89.84-20.18,1.09Zm-15.66,18.3,16.74-15.72h.13c5.58-.2,10.93-.47,15.9-.8l.76,0-10.8,13.39H2087c-7.75,1.21-15,2.23-21.59,3Zm17-15.06-15.08,14.14c6.27-.78,13.13-1.75,20.43-2.88l9.69-12c-4.73.31-9.79.56-15,.75" transform="translate(-88 -254.12)"/><rect class="cls-3" y="148.84" width="47.96" height="238.12"/><polygon class="cls-3" points="232.34 148.88 232.34 190.37 177.57 190.37 177.57 386.96 129.6 386.96 129.6 190.37 75.17 190.37 75.17 148.88 232.34 148.88"/><polygon class="cls-3" points="497.24 148.84 398.12 387.27 362.39 387.27 263.27 148.84 301.18 148.84 380.27 339.06 459.33 148.84 497.24 148.84"/><rect class="cls-3" x="515.31" y="148.84" width="35.5" height="238.44"/><path class="cls-3" d="M805.16,525.1c16.87,11.54,25.07,27.28,25.07,48.16,0,40.74-33,68.13-82.11,68.13-56.06,0-83.26-35-90-67.8l-1.27-6.15h39.89l1.22,3.36c4.91,13.36,18.34,35.78,53.11,35.78,13.46,0,24.29-3.42,31.34-9.89a27.16,27.16,0,0,0,8.86-20.15c0-21-20.42-28.11-45.09-34.56l-2.53-.64c-16.7-4.31-37.44-9.68-54.25-19.84-19.92-12-29.62-27.93-29.62-48.59,0-39.87,37.53-70,83.46-70s73.16,29.85,79.79,59.43l1.38,6.23H784.94l-1.28-3.21c-4.79-11.89-18.44-25.77-41.13-25.77a59.91,59.91,0,0,0-28,7c-10.07,5.63-15.16,13.49-15.16,23.4,0,8.82,4.15,15.08,13.47,20.28,8.95,5,21.9,8.74,38.28,13.44l2.37.67c18.2,5.23,37,10.63,51.67,20.69Z" transform="translate(-88 -254.12)"/><rect class="cls-3" x="760.48" y="148.84" width="35.5" height="238.44"/><path class="cls-3" d="M1140.24,522a119.16,119.16,0,0,1-119.06,119.07C955.46,641.08,902,587.66,902,522s53.46-119,119.18-119A119.19,119.19,0,0,1,1140.24,522m-119.06-83.56A83.57,83.57,0,1,0,1104.75,522a83.67,83.67,0,0,0-83.57-83.56" transform="translate(-88 -254.12)"/><path class="cls-3" d="M1339.56,403v238.4L1158.37,452.55V403l145.7,151.74V403Zm-181.19,49.59,35.51,37V641.36h-35.51Z" transform="translate(-88 -254.12)"/><path class="cls-3" d="M1710.62,547.57l58.84,93.82h-41.92l-57.28-91.31h-37.74v91.31H1597V438.47l35.52.52v75.54h59.18c49.71-.25,49.69-75.8,0-76.06H1597V403h94.71c84.78-.6,100.32,123.51,18.91,144.61" transform="translate(-88 -254.12)"/><polygon class="cls-3" points="1883.32 148.84 1797.63 266.69 1797.63 387.27 1762.11 387.27 1762.11 266.69 1676.42 148.84 1720.35 148.84 1779.88 230.67 1839.39 148.84 1883.32 148.84"/><path class="cls-3" d="M1425.58,563.32l-28.45,77.76s76.73-95.75,179.87-118.67c0,0-85.1-3.32-151.42,40.91" transform="translate(-88 -254.12)"/><polygon class="cls-3" points="1377.14 159.06 1271.05 386.96 1309.13 386.96 1377.14 231.83 1445.15 386.96 1481.87 386.96 1377.14 159.06"/><polygon class="cls-3" points="0 484.7 0 433.81 30.9 433.81 30.9 441.37 8.72 441.37 8.72 454.6 29.23 454.6 29.23 462.09 8.72 462.09 8.72 484.7 0 484.7"/><path class="cls-3" d="M126.09,719.63c0-10.18,7.06-20.22,19.56-20.22s19.49,10,19.49,20.22-7,20.14-19.49,20.14-19.56-10-19.56-20.14m30.33,0c0-7.64-4.37-12.65-10.77-12.65s-10.83,5-10.83,12.65,4.36,12.58,10.83,12.58,10.77-5,10.77-12.58" transform="translate(-88 -254.12)"/><path class="cls-3" d="M185.71,738.83h-8.65V700.36h8.65v8.07h.37c.87-3.85,5.45-8.29,10.9-8.29a13.59,13.59,0,0,1,2.77.22v7.78a9.35,9.35,0,0,0-2.55-.36c-5.67,0-11.49,3.92-11.49,10.9Z" transform="translate(-88 -254.12)"/><path class="cls-3" d="M254.2,739.77c-10.69,0-20.51-5.52-20.21-16.94h8.72c-.36,4.65,4.07,9.23,10.84,9.38,6,.14,9.59-1.89,9.59-6.4s-7-7-13.81-10c-7.2-3.13-14.76-7.2-14.76-15.2,0-9.38,8.07-13.6,18.32-13.6,10.69,0,18.76,4.73,18.47,15.71h-8.73c.37-4.22-2.32-8.07-9.08-8.15-6-.14-9.82,2.4-9.82,6.4,0,4.22,5.82,6.47,12.07,9.09,7.56,3.13,16.51,7.13,16.51,16.07,0,10-7.86,13.67-18.11,13.67" transform="translate(-88 -254.12)"/><path class="cls-3" d="M319.92,700.36v38.47h-8.65v-5.39c-1.31,2.84-7.49,6.33-12.43,6.33-11.13,0-14.69-7.27-14.69-16.8V700.36h8.65v21.23c-.07,6.91,2.77,10.62,8.15,10.62s10.32-3.78,10.32-9.82v-22Z" transform="translate(-88 -254.12)"/><path class="cls-3" d="M350.75,739.77c-10.91,0-18.55-5.45-18.55-13.89h8.66c0,4.8,4.21,6.55,9.31,6.55,4.87.07,7.63-1.24,7.63-4.44s-6.54-4.51-12.51-6c-6.69-1.89-12.14-3.93-11.92-11.42.14-7.12,6.69-11.13,15.92-11.13,10.26,0,15.93,6.11,15.93,14H357c.36-3.49-2.18-6.47-7.34-6.54-5-.15-7.78,1.38-7.78,4.29,0,3.49,5.16,4.72,11,5.88,6.62,1.39,13.31,4.37,13.31,11.64,0,7.85-5.52,11-15.41,11" transform="translate(-88 -254.12)"/><path class="cls-3" d="M400,731.7v7.56h-7.56c-7,0-12.29-4-12.29-11.63V707.92h-3.85v-7.56h3.85v-9.74h8.65v9.74h10.47v7.56H388.84V726c0,3.93,1.6,5.67,4.73,5.67Z" transform="translate(-88 -254.12)"/><path class="cls-3" d="M408.39,727.41c.3-8.22,8.15-11.71,19.13-11.71,4.8,0,7.42-.8,7.42-3.34,0-4.29-3.93-6.18-8.66-6.18-3.92,0-8.07,2.33-8.14,7.34h-8.8c.07-9.09,8.36-14.11,17.23-14.11,9.53,0,17,4.73,17,13.17v16.87a27.68,27.68,0,0,0,1.6,9.38h-8.65a22.66,22.66,0,0,1-1.24-6.55c-2.11,3.93-6.76,7.49-13.89,7.49-7.92,0-13.31-4.73-13-12.36m26.55-4.8v-3.42c-1.17,1.31-4.08,2.11-8.22,2.11-4.51,0-9.16,1.38-9.38,5.6-.29,4.58,3.42,6.47,7.56,6.47,7.13,0,10-6.54,10-10.76" transform="translate(-88 -254.12)"/><path class="cls-3" d="M457.18,686.11h9.45v8.07h-9.45Zm.44,14.25h8.72v38.47h-8.72Z" transform="translate(-88 -254.12)"/><path class="cls-3" d="M480.37,738.83V700.36H489v5.38c1.31-2.83,7.49-6.33,12.44-6.33,11.12,0,14.69,7.28,14.69,16.8v22.62h-8.66V717.6c.08-6.91-2.76-10.62-8.14-10.62S489,710.76,489,716.79v22Z" transform="translate(-88 -254.12)"/><path class="cls-3" d="M527.92,727.41c.29-8.22,8.14-11.71,19.12-11.71,4.8,0,7.42-.8,7.42-3.34,0-4.29-3.93-6.18-8.66-6.18-3.92,0-8.07,2.33-8.14,7.34h-8.8c.08-9.09,8.36-14.11,17.24-14.11,9.52,0,17,4.73,17,13.17v16.87a27.68,27.68,0,0,0,1.6,9.38h-8.65a22.66,22.66,0,0,1-1.24-6.55c-2.11,3.93-6.76,7.49-13.89,7.49-7.92,0-13.3-4.73-13-12.36m26.54-4.8v-3.42c-1.17,1.31-4.07,2.11-8.22,2.11-4.51,0-9.16,1.38-9.38,5.6-.29,4.58,3.42,6.47,7.56,6.47,7.13,0,10-6.54,10-10.76" transform="translate(-88 -254.12)"/><path class="cls-3" d="M615.82,719.63c0,10.11-6,20.14-18.1,20.14-5.39,0-10.62-3-12.37-7.71v6.77H576.7V685h8.65v22.32c1.75-4.73,7-7.93,12.37-7.93,12.07,0,18.1,10,18.1,20.22m-8.65,0c0-7.64-4.37-12.65-10.76-12.65s-10.84,5-10.84,12.65,4.37,12.58,10.84,12.58,10.76-5,10.76-12.58" transform="translate(-88 -254.12)"/><rect class="cls-3" x="539.88" y="430.89" width="8.65" height="53.81"/><path class="cls-3" d="M648.46,719.63c0-10.18,7-20.22,19.56-20.22,11.85,0,19.05,8.59,18.68,20.51,0,.8-.29,1.09-1,1.09H657c-.44,6,3.63,11.71,11,11.71,4.87,0,9.23-2.33,10.39-6.69h7.93c-1.67,7.71-8.29,13.74-18.32,13.74-12.51,0-19.56-10-19.56-20.14m29.88-4.22C677.54,710,673,707,667.8,707s-9.53,3.27-10.33,8.43Z" transform="translate(-88 -254.12)"/><path class="cls-3" d="M726.54,738.83v-50.9H747c16.36,0,23,8,23,25.45,0,15-6.69,25.45-23,25.45Zm8.65-7.57h10.69c11.93,0,15.42-7.56,15.42-17.88,0-11.2-3.49-17.89-15.35-17.89H735.19Z" transform="translate(-88 -254.12)"/><path class="cls-3" d="M780.34,719.63c0-10.18,7-20.22,19.56-20.22,11.85,0,19.05,8.59,18.68,20.51,0,.8-.29,1.09-1,1.09H788.92c-.44,6,3.63,11.71,11,11.71,4.87,0,9.23-2.33,10.4-6.69h7.92c-1.67,7.71-8.29,13.74-18.32,13.74-12.51,0-19.56-10-19.56-20.14m29.88-4.22c-.8-5.38-5.38-8.43-10.54-8.43s-9.53,3.27-10.33,8.43Z" transform="translate(-88 -254.12)"/><polygon class="cls-3" points="756.46 476.27 765.55 446.24 774.93 446.24 761.41 484.7 751.45 484.7 737.92 446.24 747.3 446.24 756.46 476.27"/><path class="cls-3" d="M870.12,719.63c0-10.18,7.06-20.22,19.56-20.22,11.86,0,19.06,8.59,18.69,20.51,0,.8-.29,1.09-1,1.09H878.7c-.43,6,3.64,11.71,11,11.71,4.88,0,9.24-2.33,10.4-6.69H908c-1.67,7.71-8.29,13.74-18.33,13.74-12.5,0-19.56-10-19.56-20.14M900,715.41c-.8-5.38-5.38-8.43-10.54-8.43s-9.53,3.27-10.33,8.43Z" transform="translate(-88 -254.12)"/><rect class="cls-3" x="832.36" y="430.89" width="8.65" height="53.81"/><path class="cls-3" d="M940.94,719.63c0-10.18,7-20.22,19.56-20.22s19.48,10,19.48,20.22-7.05,20.14-19.48,20.14-19.56-10-19.56-20.14m30.32,0c0-7.64-4.36-12.65-10.76-12.65s-10.84,5-10.84,12.65,4.37,12.58,10.84,12.58,10.76-5,10.76-12.58" transform="translate(-88 -254.12)"/><path class="cls-3" d="M1000.55,731.85v21.52H991.9v-53h8.65v6.76c1.75-4.72,7-7.71,12.36-7.71,12.07,0,18.11,10,18.11,20.22s-6,20.14-18.11,20.14c-5.38,0-10.61-3.13-12.36-7.92m.22-12.22c0,7.63,4.36,12.58,10.84,12.58s10.76-5,10.76-12.58S1018,707,1011.61,707s-10.84,5-10.84,12.65" transform="translate(-88 -254.12)"/><path class="cls-3" d="M1101.33,716.21v22.62h-8.73V717.59c0-6.9-2.69-10.61-8.14-10.61-4.44,0-7.86,3.92-7.93,9v22.84h-8.65V717.59c0-6.9-2.77-10.61-8.22-10.61-4.87,0-7.93,4.65-7.93,9.81v22h-8.65V700.36h8.65v5.09c1.31-2.84,5.68-6,10.11-6,6.76,0,11.27,2.84,13.09,7.71,1.53-4,7.27-7.71,11.63-7.71,11.13,0,14.77,7.28,14.77,16.8" transform="translate(-88 -254.12)"/><path class="cls-3" d="M1113,719.63c0-10.18,7-20.22,19.56-20.22,11.85,0,19,8.59,18.69,20.51,0,.8-.29,1.09-1,1.09h-28.65c-.44,6,3.63,11.71,11,11.71,4.87,0,9.23-2.33,10.4-6.69h7.92c-1.67,7.71-8.29,13.74-18.32,13.74-12.51,0-19.56-10-19.56-20.14m29.88-4.22c-.8-5.38-5.38-8.43-10.54-8.43s-9.53,3.27-10.33,8.43Z" transform="translate(-88 -254.12)"/><path class="cls-3" d="M1163.19,738.83V700.36h8.65v5.38c1.31-2.83,7.49-6.33,12.43-6.33,11.13,0,14.69,7.28,14.69,16.8v22.62h-8.65V717.6c.07-6.91-2.77-10.62-8.15-10.62s-10.32,3.78-10.32,9.81v22Z" transform="translate(-88 -254.12)"/><path class="cls-3" d="M1233.78,731.7v7.56h-7.56c-7,0-12.29-4-12.29-11.63V707.92h-3.85v-7.56h3.85v-9.74h8.66v9.74h10.47v7.56h-10.47V726c0,3.93,1.59,5.67,4.72,5.67Z" transform="translate(-88 -254.12)"/><path class="cls-3" d="M1266.78,739.77v-7.56h5.9c3.12,0,4.43-1.38,4.43-7.13V687.93h8.65v38.68c0,8.43-4.07,13.16-11,13.16Z" transform="translate(-88 -254.12)"/><path class="cls-3" d="M1297.61,719.63c0-10.18,7.05-20.22,19.56-20.22s19.49,10,19.49,20.22-7.05,20.14-19.49,20.14-19.56-10-19.56-20.14m30.32,0c0-7.64-4.36-12.65-10.76-12.65s-10.83,5-10.83,12.65,4.36,12.58,10.83,12.58,10.76-5,10.76-12.58" transform="translate(-88 -254.12)"/><path class="cls-3" d="M1384.13,700.36v38.47h-8.65v-5.39c-1.31,2.84-7.49,6.33-12.44,6.33-11.12,0-14.68-7.27-14.68-16.8V700.36H1357v21.23c-.07,6.91,2.76,10.62,8.14,10.62s10.33-3.78,10.33-9.82v-22Z" transform="translate(-88 -254.12)"/><path class="cls-3" d="M1406.52,738.83h-8.65V700.36h8.65v8.07h.36c.87-3.85,5.46-8.29,10.91-8.29a13.41,13.41,0,0,1,2.76.22v7.78a9.22,9.22,0,0,0-2.54-.36c-5.67,0-11.49,3.92-11.49,10.9Z" transform="translate(-88 -254.12)"/><path class="cls-3" d="M1431.24,738.83V700.36h8.65v5.38c1.31-2.83,7.49-6.33,12.43-6.33,11.13,0,14.69,7.28,14.69,16.8v22.62h-8.65V717.6c.07-6.91-2.76-10.62-8.15-10.62s-10.32,3.78-10.32,9.81v22Z" transform="translate(-88 -254.12)"/><path class="cls-3" d="M1478.71,719.63c0-10.18,7-20.22,19.56-20.22,11.85,0,19,8.59,18.69,20.51,0,.8-.29,1.09-1,1.09h-28.65c-.44,6,3.64,11.71,11,11.71,4.87,0,9.23-2.33,10.4-6.69h7.92c-1.67,7.71-8.29,13.74-18.32,13.74-12.51,0-19.56-10-19.56-20.14m29.88-4.22c-.8-5.38-5.38-8.43-10.54-8.43s-9.52,3.27-10.32,8.43Z" transform="translate(-88 -254.12)"/><path class="cls-3" d="M1526.48,745.59a13,13,0,0,0,4.29.29,10.62,10.62,0,0,0,8.43-7h-1.74l-13.17-38.47h9.38l9.17,30,9.16-30h9.38l-13.6,38.47c-3,8.72-7.78,13.59-16,14.47a44,44,0,0,1-5.3.07Z" transform="translate(-88 -254.12)"/></g></svg>